/* XPM */
static char *_7e41e595ff148bfde99b53d4e167a12ddZGNgSAMIqibiCv[] = {
/* columns rows colors chars-per-pixel */
"60 40 2 1 ",
"  c None",
". c cyan",
/* pixels */
"          .....                         .....               ",
"          .....                         .....               ",
"          .....                         .....               ",
"          .....                         .....               ",
"          .....                         .....               ",
"               .....               .....                    ",
"               .....               .....                    ",
"               .....               .....                    ",
"               .....               .....                    ",
"               .....               .....                    ",
"          ...................................               ",
"          ...................................               ",
"          ...................................               ",
"          ...................................               ",
"          ...................................               ",
"     ..........     ...............     ..........          ",
"     ..........     ...............     ..........          ",
"     ..........     ...............     ..........          ",
"     ..........     ...............     ..........          ",
"     ..........     ...............     ..........          ",
".......................................................     ",
".......................................................     ",
".......................................................     ",
".......................................................     ",
".......................................................     ",
".....     ...................................     .....     ",
".....     ...................................     .....     ",
".....     ...................................     .....     ",
".....     ...................................     .....     ",
".....     ...................................     .....     ",
".....     .....                         .....     .....     ",
".....     .....                         .....     .....     ",
".....     .....                         .....     .....     ",
".....     .....                         .....     .....     ",
".....     .....                         .....     .....     ",
"               ..........     ..........                    ",
"               ..........     ..........                    ",
"               ..........     ..........                    ",
"               ..........     ..........                    ",
"               ..........     ..........                    "
};
