/* XPM */
static char *_63775dc10744806f142a7c0fe8d3c68T3KyQ1mrQnzT1WJM[] = {
/* columns rows colors chars-per-pixel */
"60 40 2 1 ",
"  c None",
". c cyan",
/* pixels */
"          .....                         .....               ",
"          .....                         .....               ",
"          .....                         .....               ",
"          .....                         .....               ",
"          .....                         .....               ",
".....          .....               .....          .....     ",
".....          .....               .....          .....     ",
".....          .....               .....          .....     ",
".....          .....               .....          .....     ",
".....          .....               .....          .....     ",
".....     ...................................     .....     ",
".....     ...................................     .....     ",
".....     ...................................     .....     ",
".....     ...................................     .....     ",
".....     ...................................     .....     ",
"...............     ...............     ...............     ",
"...............     ...............     ...............     ",
"...............     ...............     ...............     ",
"...............     ...............     ...............     ",
"...............     ...............     ...............     ",
"     .............................................          ",
"     .............................................          ",
"     .............................................          ",
"     .............................................          ",
"     .............................................          ",
"          ...................................               ",
"          ...................................               ",
"          ...................................               ",
"          ...................................               ",
"          ...................................               ",
"          .....                         .....               ",
"          .....                         .....               ",
"          .....                         .....               ",
"          .....                         .....               ",
"          .....                         .....               ",
"     .....                                   .....          ",
"     .....                                   .....          ",
"     .....                                   .....          ",
"     .....                                   .....          ",
"     .....                                   .....          "
};
