/* XPM */
static char *_694d99e7ab449178c73b5f3965a77f9zapWNpSHSBXNimhA[] = {
/* columns rows colors chars-per-pixel */
"60 40 2 1 ",
"  c None",
". c magenta",
/* pixels */
"                    ....................                    ",
"                    ....................                    ",
"                    ....................                    ",
"                    ....................                    ",
"                    ....................                    ",
"     ..................................................     ",
"     ..................................................     ",
"     ..................................................     ",
"     ..................................................     ",
"     ..................................................     ",
"............................................................",
"............................................................",
"............................................................",
"............................................................",
"............................................................",
"...............          ..........          ...............",
"...............          ..........          ...............",
"...............          ..........          ...............",
"...............          ..........          ...............",
"...............          ..........          ...............",
"............................................................",
"............................................................",
"............................................................",
"............................................................",
"............................................................",
"          ...............          ...............          ",
"          ...............          ...............          ",
"          ...............          ...............          ",
"          ...............          ...............          ",
"          ...............          ...............          ",
"     ..........          ..........          ..........     ",
"     ..........          ..........          ..........     ",
"     ..........          ..........          ..........     ",
"     ..........          ..........          ..........     ",
"     ..........          ..........          ..........     ",
"          ..........                    ..........          ",
"          ..........                    ..........          ",
"          ..........                    ..........          ",
"          ..........                    ..........          ",
"          ..........                    ..........          "
};
