/* XPM */
static char *_24d923b5a4f43fef010475b7ba932d09MV1FAw9u4hxC4zV[] = {
/* columns rows colors chars-per-pixel */
"60 40 2 1 ",
"  c None",
". c magenta",
/* pixels */
"                    ....................                    ",
"                    ....................                    ",
"                    ....................                    ",
"                    ....................                    ",
"                    ....................                    ",
"     ..................................................     ",
"     ..................................................     ",
"     ..................................................     ",
"     ..................................................     ",
"     ..................................................     ",
"............................................................",
"............................................................",
"............................................................",
"............................................................",
"............................................................",
"...............          ..........          ...............",
"...............          ..........          ...............",
"...............          ..........          ...............",
"...............          ..........          ...............",
"...............          ..........          ...............",
"............................................................",
"............................................................",
"............................................................",
"............................................................",
"............................................................",
"               ..........          ..........               ",
"               ..........          ..........               ",
"               ..........          ..........               ",
"               ..........          ..........               ",
"               ..........          ..........               ",
"          ..........     ..........     ..........          ",
"          ..........     ..........     ..........          ",
"          ..........     ..........     ..........          ",
"          ..........     ..........     ..........          ",
"          ..........     ..........     ..........          ",
"..........                                        ..........",
"..........                                        ..........",
"..........                                        ..........",
"..........                                        ..........",
"..........                                        .........."
};
