/* XPM */
static xpm_row_t const alien1[] = {
/* columns rows colors chars-per-pixel */
"60 40 2 1 ",
"  c None",
". c magenta",
/* pixels */
"                    ....................                    ",
"                    ....................                    ",
"                    ....................                    ",
"                    ....................                    ",
"                    ....................                    ",
"     ..................................................     ",
"     ..................................................     ",
"     ..................................................     ",
"     ..................................................     ",
"     ..................................................     ",
"............................................................",
"............................................................",
"............................................................",
"............................................................",
"............................................................",
"...............          ..........          ...............",
"...............          ..........          ...............",
"...............          ..........          ...............",
"...............          ..........          ...............",
"...............          ..........          ...............",
"............................................................",
"............................................................",
"............................................................",
"............................................................",
"............................................................",
"               ..........          ..........               ",
"               ..........          ..........               ",
"               ..........          ..........               ",
"               ..........          ..........               ",
"               ..........          ..........               ",
"          ..........     ..........     ..........          ",
"          ..........     ..........     ..........          ",
"          ..........     ..........     ..........          ",
"          ..........     ..........     ..........          ",
"          ..........     ..........     ..........          ",
"..........                                        ..........",
"..........                                        ..........",
"..........                                        ..........",
"..........                                        ..........",
"..........                                        .........."
};
